<?xml version="1.0" encoding="UTF-8"?> <svg xmlns="http://www.w3.org/2000/svg" xmlns:xlink="http://www.w3.org/1999/xlink" version="1.1" viewBox="0 0 543 543"><defs><style> .cls-1 { fill: #fff; } .cls-2 { fill-rule: evenodd; } .cls-2, .cls-3 { fill: #dc2a27; } .cls-4 { filter: url(#drop-shadow-1); } </style><filter id="drop-shadow-1" filterUnits="userSpaceOnUse"><feOffset dx="0" dy="0"></feOffset><feGaussianBlur result="blur" stdDeviation="5"></feGaussianBlur><feFlood flood-color="#000" flood-opacity=".5"></feFlood><feComposite in2="blur" operator="in"></feComposite><feComposite in="SourceGraphic"></feComposite></filter></defs><g><g id="Layer_1"><g class="cls-4"><circle class="cls-1" cx="271.5" cy="271.5" r="271.5"></circle><path class="cls-2" d="M204.7,468.2c-1,2.6-2.3,6.3-3.8,11-2.1,6.5-3.6,11.3-4.4,14.5-.5-.3-1-.5-1.6-.7-.6-.2-1.2-.3-1.9-.4.7-1.6,1.4-3.6,2.2-6l1.8-5.7c0,0,0-.1-.1-.2-1.2-.4-6.4,2.3-15.5,8-.5-.3-1-.5-1.6-.7-.6-.2-1.1-.3-1.7-.4,1-.3,3.7-1.6,8.2-3.9l7.2-3.6c-1-2.6-3.5-8.6-7.5-18,.7.4,1.4.7,2.1.9.7.2,1.4.4,2.1.5,1.1,3.4,2,5.8,2.5,7.2l2.6,6.7c.6,1.5,1.3,2.4,2,2.7l1.4-4.4c1.1-3.4,1.9-6.2,2.5-8.5.5.3,1.1.6,1.7.8.6.2,1.1.3,1.7.4M268.4,508.5c.8,0,1.5.7,1.5,1.5s-.7,1.5-1.5,1.5-1.5-.7-1.5-1.5h0c0-.8.7-1.5,1.5-1.5h0ZM261.5,508.5c.8,0,1.5.7,1.5,1.5s-.7,1.5-1.5,1.5-1.5-.7-1.5-1.5h0c0-.8.7-1.5,1.5-1.5h0ZM231.8,482.5c2.9,0,5.2,2.3,5.2,5.2s-2.3,5.2-5.2,5.2c-2.9,0-5.2-2.3-5.2-5.2h0c0-2.9,2.3-5.2,5.2-5.2h0ZM394.6,74c2.9,0,5.2,2.3,5.2,5.2s-2.3,5.2-5.2,5.2c-2.9,0-5.2-2.3-5.2-5.2,0-2.9,2.3-5.2,5.2-5.2,0,0,0,0,0,0ZM483,213.2c.5,0,.9-.1,1.4-.2.6-.1,1.8-.4,3.5-.7,2.6-.6,5.5-1.3,8.7-2.1s6.1-1.6,8.7-2.2l3.4-1c.4-.1.9-.3,1.3-.4.1.7.2,1.3.4,2,.2.7.3,1.3.6,2-.5,0-.9.1-1.4.2l-3.5.8c-2.6.6-5.5,1.3-8.7,2.1-4.3,1.1-8,2.1-11.2,2.9.2.9.4,1.8.6,2.7l.4,1.4c.3,1.2.6,2.4,1,3.7.3.9.6,1.7.9,2.6-.5,0-.9.1-1.4.2-.4.1-.9.2-1.3.4,0-.6-.2-1.4-.4-2.6s-.4-2.2-.7-3.1l-.8-3.1c-.2-1-.5-2.1-.9-3.1-.2-.8-.5-1.6-.8-2.4h0ZM493.9,238.9c2.6-.3,5.6-.7,8.8-1.1s6.2-.9,8.8-1.3c1.7-.3,2.8-.5,3.5-.6.5,0,.9-.2,1.4-.3,0,.7,0,1.3.2,2,0,.7.2,1.3.4,2-.5,0-.9,0-1.4,0l-3.5.4c-2.6.3-5.5.7-8.8,1.1s-6.2.9-8.8,1.3l-3.5.6c-.5,0-.9.2-1.4.3,0-.7,0-1.3-.2-2,0-.7-.2-1.3-.4-2,.5,0,.9,0,1.4,0l3.5-.3ZM495.7,272.6c-1.7,0-2.9,0-3.5,0-.5,0-.9,0-1.4.1.2-1.3.2-2.7,0-4,.4,0,.9.1,1.4.1l3.6.2c2.6,0,5.6.2,8.8.2s6.2,0,8.9,0h3.6c.5,0,.9,0,1.4-.2,0,.6-.1,1.3-.1,2,0,.7,0,1.3,0,2-.5,0-.9-.1-1.4-.1-.7,0-1.8-.1-3.5-.2-2.4-.1-5-.2-7.8-.2h0c1.5,1.9,3.4,3.9,5.8,6.3,2.6,2.6,4.8,4.7,6.6,6.2v2.1c0,.7,0,1.4,0,2.1-.4-.5-.8-1-1.2-1.5-.6-.7-1.8-2.1-3.6-4l-3-3.3-4.1-4.3-5.3,4.2-5.3,4.4-3.8,3.2c-.4.3-.8.7-1.2,1.1,0-.8.1-1.6.1-2.5,0-.8,0-1.7,0-2.5.7-.4,1.4-.8,2-1.3.7-.5,1.6-1.3,3-2.4l2.5-2c2.7-2.2,4.9-4.1,6.7-5.7h-.2c-3.4-.2-6.4-.2-9-.2h0ZM488.3,300.1c.4.2.9.3,1.3.4.6.1,1.8.4,3.5.7,2.6.5,5.5,1,8.8,1.6s6.2,1.1,8.8,1.5l3.5.5c.5,0,.9,0,1.4.1-.4,1.3-.6,2.6-.7,4-.4-.2-.9-.3-1.3-.4-.6-.1-1.8-.4-3.5-.7-2.6-.5-5.5-1.1-8.8-1.6-4.4-.8-8.2-1.4-11.4-1.9-.2.9-.4,1.8-.5,2.8l-.2,1.4c-.2,1.2-.4,2.5-.5,3.8-.1.9-.2,1.8-.2,2.8-.4-.2-.9-.3-1.3-.4-.5,0-.9-.1-1.4-.1.3-.8.5-1.6.7-2.5.3-1.1.5-2.2.6-3.1l.6-3.2c.2-1,.3-2.1.5-3.2.1-.8.2-1.7.2-2.5h0ZM487.1,327.7c2.5.8,5.4,1.6,8.5,2.5s6,1.7,8.5,2.4l3.4.9c.4.1.9.2,1.4.2-.2.6-.5,1.2-.7,1.9-.2.7-.3,1.3-.5,2-.4-.2-.9-.4-1.3-.5-.6-.2-1.7-.6-3.4-1.1-2.5-.8-5.3-1.6-8.5-2.5s-6-1.7-8.5-2.4c-1.6-.4-2.8-.7-3.4-.9-.4-.1-.9-.2-1.4-.3.2-.6.4-1.2.6-1.9.2-.7.4-1.3.5-2,.4.2.9.4,1.3.5l3.4,1.1ZM479.7,347.8c-1.5-.7-2.6-1.1-3.2-1.3-.4-.2-.9-.4-1.4-.5.3-.4.5-.8.7-1.2.2-.4.4-.9.5-1.3.4.3.8.5,1.2.7l3.2,1.6c2.4,1.2,5,2.4,8,3.8s5.6,2.6,8,3.6l3.3,1.4c.4.2.9.3,1.3.5l-.2.5-.2.5c-4.9,1.4-11.1,3.4-18.4,5.9l-9,3.1,6.4,3c3.1,1.4,5.8,2.7,8.3,3.8,1.6.7,2.7,1.2,3.3,1.4.4.2.8.3,1.3.5-.3.4-.5.8-.7,1.2-.2.4-.4.9-.5,1.3-.4-.3-.8-.5-1.2-.7-.6-.3-1.6-.9-3.2-1.6-2.4-1.2-5.2-2.5-8.2-3.9-5.1-2.4-9.3-4.3-12.7-5.7l.2-.5.2-.5c4.9-1.4,11.1-3.4,18.4-5.8l9.1-3.1-6.2-2.9c-3-1.4-5.7-2.7-8.1-3.7h0ZM462.8,379.8c2.2,1.5,4.6,3.1,7.4,4.9,2.7,1.8,5.2,3.4,7.5,4.8l3,1.8c.4.2.8.5,1.2.6-.4.5-.8,1.1-1.2,1.7-.4.6-.7,1.1-1,1.8-.3-.3-.7-.6-1.1-.9-.5-.4-1.5-1.1-2.9-2-2.2-1.5-4.6-3.1-7.4-4.9s-5.3-3.4-7.5-4.8c-1.5-.9-2.5-1.5-3-1.8-.4-.2-.8-.5-1.2-.6.4-.5.8-1.1,1.2-1.6.4-.6.7-1.2,1-1.8.3.3.7.6,1.1.9.5.3,1.5,1,2.9,1.9h0ZM450,398c2.1,1.6,4.4,3.5,6.9,5.5v.2h.1c-2.4.1-5.3.3-8.8.4h-3.2c0,0-3.8,0-3.8,0-.8,0-1.6,0-2.4-.2-.5.7-1,1.4-1.5,2-.6.7-1.1,1.4-1.7,1.9.5,0,1.1-.1,1.6-.1l5-.2,6.8-.2h6.8c0,0,.6,5.8.6,5.8l.4,4.5c.2,2.6.3,4.5.4,5.4,0,.6,0,1.3,0,1.9.4-.6.8-1.1,1.2-1.7l1.3-1.6c-.5-2.4-.9-5.4-1.4-9-.4-3.3-.6-6.2-.7-8.5h0c2.2,1.7,4.2,3.4,6,5l2.7,2.3c.4.3.7.6,1,1,.7-1.1,1.6-2.2,2.6-3.2-.2-.1-.6-.4-1.1-.8s-1.5-1.1-2.9-2.1c-2.1-1.6-4.4-3.4-6.9-5.5-2.5-2-4.8-3.9-6.8-5.6-1.3-1.1-2.2-1.9-2.7-2.3-.4-.3-.7-.6-1-1-.4.6-.8,1.1-1.2,1.6-.4.5-.8,1-1.3,1.4.4.2.8.5,1.2.8.6.5,1.5,1.2,2.9,2.2ZM418,430.3c1.7,2.1,3.5,4.3,5.6,6.8,2.9,3.5,5.5,6.5,7.7,8.9l1.7-1.4c1-.8,2-1.7,2.9-2.6.7-.6,1.3-1.2,1.9-1.9.2.4.5.8.8,1.1.3.3.6.6.9.9-1.2.9-2.5,1.9-3.9,3s-2.6,2-3.3,2.6l-.8.7-.8.7c-.8.7-1.9,1.6-3.3,2.9s-2.5,2.3-3.5,3.3c-.4-.8-1-1.4-1.7-2,.8-.5,1.5-1,2.2-1.6,1-.8,2-1.6,3-2.4l1.2-1c-2-2.6-4.5-5.6-7.4-9.1-2.1-2.5-4-4.8-5.8-6.7-1.1-1.3-1.9-2.2-2.4-2.6-.3-.4-.6-.7-1-1,.6-.4,1.1-.8,1.6-1.2.5-.4,1-.9,1.5-1.4.2.4.5.8.8,1.1l2.2,2.9ZM396.9,440.1c.2.4.4.8.6,1.2.3.6.9,1.6,1.8,3.1,1.4,2.3,3,4.9,4.7,7.7s3.4,5.4,4.9,7.6c1,1.4,1.6,2.4,2,2.9.3.4.5.8.8,1.1-.7.3-1.4.7-2.1,1-1,.5-1.9,1.1-2.9,1.7l-2.5,1.6c-1,.6-1.9,1.2-2.7,1.8-.7.5-1.4,1-2,1.5-.2-.4-.4-.8-.6-1.2-.2-.4-.5-.7-.8-1.1.7-.3,1.5-.6,2.2-1,1-.6,2-1.1,2.9-1.7l1.2-.7c1-.6,2-1.3,2.9-1.9l-5.2-8.6-3,1.9c-1,.6-2,1.3-3,2-.7.5-1.4,1-2,1.6-.2-.4-.4-.8-.6-1.2-.2-.4-.5-.7-.8-1.1.8-.3,1.6-.7,2.3-1.1,1.1-.6,2.1-1.2,3.1-1.8l3-1.9c-2.3-3.7-4.3-6.8-6-9.5l-2.3,1.4-1.1.7c-1,.6-2.1,1.4-3.1,2.1-.8.5-1.5,1.1-2.2,1.7-.2-.4-.4-.8-.6-1.2-.2-.4-.5-.8-.8-1.1.5-.2,1.3-.6,2.3-1.2s1.9-1.1,2.8-1.6l2.6-1.6c.9-.5,1.8-1.1,2.7-1.8.7-.5,1.3-1,1.9-1.6h0ZM369.3,461.2c-.6-1.6-1.1-2.7-1.3-3.3-.2-.4-.3-.9-.5-1.3-1.2.7-2.4,1.2-3.7,1.7.3.4.5.8.7,1.2.3.6.8,1.7,1.6,3.2,1.1,2.4,2.3,5,3.7,8.1,1.8,4.2,3.4,7.7,4.6,10.8l-1.3.6c-1.2.5-2.4,1-3.6,1.5-.8.3-1.7.6-2.5.9.3.4.5.7.6,1.1.2.4.3.8.4,1.3,1.2-.7,2.7-1.4,4.3-2.2s3-1.4,3.9-1.9l1-.4,1-.4c.9-.4,2.2-1,3.9-1.6s3.2-1.3,4.6-1.8c-.3-.4-.5-.7-.6-1.2-.2-.4-.3-.8-.4-1.2-.8.5-1.5.9-2.3,1.3-1.2.6-2.4,1.1-3.5,1.7l-1.9.9c-1.4-2.9-3.1-6.5-4.9-10.7-1.4-3-2.6-5.7-3.6-8.1h0ZM333.3,468.9c3.7-1.2,7.7-1,11.2.7,3.3,1.7,5.7,4.8,6.6,8.5,1.3,3.8.9,7.9-1.1,11.4-2.1,3.5-5.4,6-9.3,6.9-4.2,1.2-7.9,1-11.2-.8-3.3-1.7-5.7-4.8-6.6-8.4-1.3-3.8-.9-7.9,1.1-11.4,2-3.5,5.4-6,9.3-6.9h0ZM333.5,470.6c-2.9.7-5.4,2.8-6.6,5.5-1.2,2.8-1.3,6-.2,9.8.7,3.1,2.6,5.9,5.2,7.7,2.5,1.6,5.6,1.9,8.5,1,2.9-.7,5.3-2.8,6.5-5.5,1.2-2.8,1.3-6,.2-9.8-.7-3.1-2.6-5.9-5.2-7.7-2.5-1.6-5.6-2-8.5-1h0ZM310.4,497.6c1,1.7,1.7,2.9,2.1,3.5s.6,1,.7,1.1c-.8,0-1.5,0-2.3.2-.8,0-1.5.2-2.3.4-.2-.7-.5-1.4-.8-2-.3-.6-.8-1.5-1.4-2.7l-4.6-8.5-4.8-8.7h0c-.8,2.8-1.7,6-2.6,9.6-.9,3.4-1.7,6.5-2.3,9.3-.3,1.3-.5,2.3-.6,3-.1.7-.2,1.4-.3,2.1-.5,0-1.1,0-1.6,0-.5,0-1.1.2-1.6.3,0-.2.2-.6.4-1.3s.6-2,1.1-3.8l2.5-9.3c1.6-5.7,2.8-10.5,3.8-14.3.5,0,.9,0,1.4,0,.5,0,.9-.2,1.4-.3,1.8,3.5,4.2,7.9,7.1,13.1,1.7,3,3.3,5.8,4.7,8.2h0ZM273.8,477.7c0,.5-.1.9-.2,1.4,0,.7-.1,1.8-.3,3.5-.1,2.7-.3,5.7-.4,9.1s-.2,6.4-.2,9.1v3.5c0,.5,0,.9,0,1.4-.8-.2-1.5-.3-2.3-.3-1.1,0-2.2-.1-3.3-.2h-3c-1.2,0-2.3-.1-3.2,0-.8,0-1.7,0-2.5.2.2-.9.2-1.8.1-2.7.8.2,1.6.3,2.4.4,1.1.1,2.3.2,3.3.2h1.4c1.2,0,2.4,0,3.4,0l.5-10h-3.5c0-.1-3.6-.1-3.6-.1-.9,0-1.7,0-2.6.1.2-.9.2-1.8,0-2.7.8.2,1.7.3,2.5.3,1.2.1,2.4.2,3.6.2h3.5c.2-4.2.3-7.9.3-11.1h-2.7c0-.1-1.3-.1-1.3-.1-1.2,0-2.5,0-3.8,0-.9,0-1.9,0-2.8.2,0-.5.2-.9.2-1.4,0-.5,0-.9,0-1.4.9.1,1.7.3,2.6.3,1.1.1,2.2.2,3.2.2h3c0,.1,3.2.1,3.2.1.8,0,1.6-.1,2.5-.3h0ZM156.1,477c.4,0,.9.2,1.2.4.4.2.7.5,1.1.8,7.4-6.7,14.6-13,21.7-18.9-.4,0-.9-.3-1.2-.5-.4-.2-.8-.4-1.1-.7-5.7,5.4-11.7,10.9-18.1,16.4.7-8.5,1.5-16.7,2.5-24.4-.6-.2-1.2-.4-1.8-.8-.6-.3-1.1-.6-1.6-1-.6,8.1-1.5,17.6-2.7,28.6h0ZM122.4,448.4c1.6-.2,6-1.1,13.1-2.6,7.4-1.6,11.9-2.6,13.7-3.1l.4.3c-1.5,1.9-3.5,4.6-6,8.2l-1.9,2.6c-3.8,5.3-6.3,9-7.5,11.1-.4-.4-.8-.8-1.3-1.1-.5-.4-1-.7-1.6-.9,1.1-1.3,2.6-3.4,4.6-6.1l3.3-4.7c1.1-1.6,1.7-2.5,1.7-2.5l1.7-2.5c.2-.3.3-.4.4-.5-1.4.1-5.7.9-12.8,2.4-7.3,1.5-12,2.6-14.1,3.2l-.4-.3c1.1-1.3,2.6-3.4,4.6-6.1l3.3-4.7,1.9-2.8c.3-.4.6-.9,1-1.5l.7-1c1.7-2.5,3-4.4,3.8-5.8.4.4.9.8,1.4,1.1.5.3,1,.6,1.6.9-1.5,1.9-3.5,4.6-6,8.2l-1.8,2.7c-2.1,3-3.4,4.9-3.8,5.6h0ZM120.6,421.2c-.5-.3-.9-.7-1.3-1.2-.4-.4-.8-.9-1.2-1.5-.9,1-3.7,3.8-8.3,8.3l-1.3,1.2c-1.9-1.9-3.8-3.8-5.7-5.8-1.9-1.9-3.7-3.9-5.5-5.9l1.3-1.3c3.3-3.1,6.1-5.8,8.6-7.9-.5-.4-.9-.7-1.4-1.2-.4-.5-.9-1-1.2-1.5-3.8,4-7.2,7.4-10.1,10.2-3.2,3.1-6.2,5.9-9.1,8.3.5.4,1,.8,1.4,1.2.5.4.9.9,1.2,1.5,1.9-2.2,4.2-4.5,6.9-7.1l1.1-1.1c1.3,1.3,3.2,3.2,5.6,5.8s4.4,4.5,5.6,5.9l-1.1,1.1c-3.8,3.7-6.3,6-7.3,6.8.5.4.9.8,1.4,1.2.4.4.8.9,1.2,1.4,1.7-1.9,4.6-4.9,8.7-8.8,4.6-4.5,8.1-7.7,10.5-9.8h0ZM67.7,389.2c1.5.4,5.9,1.2,13.2,2.5,7.4,1.3,12,2.1,13.9,2.2l.3.4c-2.1,1.2-5,3-8.6,5.3l-2.7,1.8c-5.5,3.6-9.2,6.1-11.1,7.5-.5-1.1-1.1-2.1-1.9-3,1.5-.8,3.7-2.2,6.5-4l4.8-3.2,2.5-1.6,2.6-1.7c.3-.2.4-.3.6-.4-1.4-.4-5.6-1.3-12.8-2.6-7.4-1.3-12.2-2.1-14.3-2.3l-.3-.4c1.5-.8,3.7-2.1,6.6-4l4.8-3.1,2.8-1.8,1.5-1,1-.7c2-1.2,3.8-2.6,5.7-4,.2.6.5,1.1.8,1.6.3.5.7,1,1.2,1.4-2.1,1.2-4.9,3-8.6,5.3l-2.7,1.8c-3.1,2-5,3.3-5.6,3.7h0ZM59,355.7c3.1-1.4,6.5-3,10.3-4.6-.5-.6-.7-.5-.9-1.1-.3-.6-.5-1.3-.6-1.9-4,2-7.6,3.8-10.9,5.4-3,1.4-8.9,4.1-12.6,5.7.4.5.7,1.1,1,1.7.2.4.4.8.5,1.3,3.1-1.6,8.5-4.3,11.1-5.5h.2c2,1.1,3.6,2.7,4.7,4.7.5,1,.8,2.1.8,3.2,0,1.4,0,2.7-.9,3.2-4,1.7-9.3,4.2-10.8,4.9.3.4.2.5.5,1.3.3.6.5,1.2.7,1.9,3.4-1.7,8.6-4.3,10.4-5.2,1.6-.7,2.6-2.1,2.8-3.8.2-1.7-.2-3.4-.9-4.9-1.1-2.5-3-4.5-5.3-5.9h-.1ZM62,332.6c-2.7.6-6.5,1.6-11.2,2.9-6.5,1.9-11.4,3.4-14.5,4.4,0-.6-.2-1.1-.3-1.7-.2-.6-.4-1.2-.7-1.8,1.7-.3,3.7-.8,6.2-1.5l5.7-1.7c0,0,0-.1,0-.2-.4-1.2-5.5-4-15.3-8.3-.1-1.2-.5-2.3-1-3.4.8.6,3.4,2.2,7.8,4.6l7,4c1.6-2.2,5.2-7.7,10.8-16.3,0,.8.3,1.6.5,2.3.2.7.5,1.4.8,2.1-2.2,2.8-3.7,4.8-4.6,6.1l-4.1,5.9c-.9,1.3-1.3,2.4-1.1,3.2l4.5-1.3c3.4-1,6.2-1.9,8.5-2.7,0,.6.2,1.2.3,1.8.2.5.4,1,.7,1.5h0ZM54.9,307.3c-10.6-3.3-20.1-6.2-28.5-8.7v-.7c8.5-4.7,17.1-9.6,25.5-14.6,0,.6,0,1.3,0,1.9,0,.7.2,1.3.4,2-2.9,1.4-5.7,2.9-8.4,4.4l-1.5.9c0,1.1.2,2.7.5,4.8s.5,3.8.7,4.8c2.9.9,6.5,1.8,10.9,2.7,0,.4,0,.9,0,1.3,0,.4.2.8.3,1.2h0ZM41.9,301.5c0-.8-.2-1.2-.2-1.2-.2-1.3-.2-1.9-.2-1.8,0-.3,0-.6,0-.9,0-.4-.1-1.1-.2-1.5,0,0-.1-1-.3-2.9l-1.6.9c-.9.5-3.4,1.9-7.5,4.3l10.1,3ZM38.3,257.4c1.5.2,2.8.3,3.8.4,3.1.3,5.6.4,7.8.5.3-.9.5-1.7.6-2.6.3-1.8-.1-3.7-1.1-5.3-1-1.6-2.7-2.5-4.6-2.6-1.9-.3-3.7.4-5,1.8-1.2,1.4-1.9,3.2-2,5.1-.2,1,0,1.9.5,2.8h0ZM24.7,259.5c.2-1.3.4-3,.6-5.1s.4-4.9.6-8.6h.6c.3,0,.5,0,.7.1h1.2c-.8,3.1-1.2,6.2-1.4,9.4v.9c2.3.3,3.8.5,4.4.5l5,.4c0-1.1,0-2.1,0-3.2,0-2.5.9-4.9,2.2-7,2.5-3.2,7.2-3.8,10.4-1.2.8.6,1.5,1.4,1.9,2.3.9,2.3,1.3,4.8.9,7.3,0,.8-.1,1.5-.3,2.3-.1,1-.2,1.8-.3,2.3,0,.7,0,1.4,0,2.1-2.5-.5-6-.9-10.7-1.3-7.3-.7-12.7-1.1-16-1.2h0ZM57.9,220c-1.1,4.3-3.1,7.4-6,9.3-2.9,1.9-6.6,2.4-10.9,1.4-4.2-1-7.2-3.2-8.9-6.4-1.7-3.1-2.1-6.8-1-11,1.1-4.2,3.1-7.3,6.1-9.3s6.7-2.4,10.9-1.4c3.7.8,6.9,3.1,8.8,6.4,1.8,3.4,2.1,7.3,1,10.9h0ZM56.5,219.6c.9-3.5.3-6.4-1.5-8.7-1.7-2.1-4.3-3.6-8-4.5s-6.7-.9-9.1.2c-2.7,1.1-4.5,3.5-5.4,7-.9,3.5-.3,6.4,1.6,8.8,1.7,2.1,4.4,3.5,8,4.4,3.6.9,6.6.8,9-.2,2.8-1.2,4.6-3.6,5.4-7h0ZM44.7,174.8c11,.4,20.6.6,28.8.6-.3.5-.6,1.1-.9,1.7-.3.6-.4,1.2-.6,1.8-7.8-.4-15.9-.7-24.5-.8,5.9,6,11.8,11.6,17.6,16.9-.3.3-.5.7-.7,1.1-.2.4-.3.8-.4,1.3-6.5-6.7-13.3-13.4-20.4-20.3.6-.7.9-1.5,1-2.4h0ZM78.6,166.4c-2.5-1.9-6.4-4.7-11.8-8.3-4.7-3.2-8.1-5.4-10.4-6.6.8-.9,1.5-1.9,2-3,1,.8,3.7,2.7,8.1,5.7l1.3.9c1-1.5,2.5-3.7,4.6-6.7s3.5-5.2,4.5-6.7l-1.3-.9c-3.1-2.1-5.9-3.9-8.4-5.3.9-.9,1.6-1.9,2.1-3.1,3,2.3,6.3,4.6,10,7.2,3.3,2.3,7.4,4.9,12.1,7.8-.4.5-.8,1-1.2,1.5-.3.5-.6,1-.9,1.6-2.6-2-5.8-4.3-9.5-6.8l-1.5-1c-1.6,2.2-3.1,4.4-4.6,6.6s-3,4.5-4.4,6.8l1.5,1c5.3,3.6,8.6,5.7,9.8,6.4-.4.5-.8.9-1.2,1.5-.3.5-.6,1-.8,1.5h0ZM98.3,109c.6.5,2.3,2,5,4.6l2.4,2.2c3.1,2.9,5.5,5.3,7.2,7,.3-.5.7-1,1.1-1.5.4-.4.9-.8,1.3-1.1-1.2-1-3-2.5-5.2-4.5l-.9-.9-1.3-1.2-2.5-2.3-4.2-3.9c-2.5-2.3-4.3-4.1-5.4-5.4l-.3.3c.3,2.1.7,7,1.2,14.4.5,7.3.7,11.6.6,13,0-.1-.2-.2-.5-.5l-2.2-2.1-2.2-2.1-4.2-3.9c-2.5-2.3-4.3-4.1-5.5-5.4-.3.5-.7,1-1.1,1.4-.4.4-.8.8-1.3,1.2,1.8,1.5,5.1,4.5,9.9,9l2.4,2.2c3.1,2.9,5.6,5.3,7.3,7l.3-.4c-.3-1.8-.7-6.5-1.2-14-.5-7.4-.7-11.8-.8-13.4h0ZM125.6,110.4c-1.9-3-4.6-7-8.2-11.8-3.3-4.6-5.8-7.8-7.5-9.8.6-.3,1.1-.6,1.6-1,.5-.4,1-.8,1.4-1.2.6,1.1,2.5,3.8,5.7,8.2l3,4.1c3,4.2,5,6.8,5.7,7.7,2.9-2,5.2-3.6,6.9-4.8,1.7-1.2,3.5-2.6,5.5-4.2-1.9-2.9-3.8-5.5-5.5-7.9l-3-4.1c-2.2-3-4.2-5.6-6.1-7.8.6-.3,1.1-.6,1.6-1,.5-.4,1-.8,1.4-1.2,2.1,3.1,4.4,6.5,7,10.1,2.4,3.2,4.8,6.5,7.4,9.7.6-.5,1.1-1,1.6-1.5.3.6.7,1.2,1.1,1.7l1.2,1.5-.3.2c-1.3-.3-3.2.4-5.8,2l-5.2,3.9c-3.6,2.6-6.7,5-9.4,7h0ZM152.7,91.3c-.7-11.1-1.4-21-2.1-29.7l.6-.4c7.5,6.4,15.1,12.6,22.8,18.7-.6.2-1.2.4-1.8.7-.6.3-1.2.7-1.7,1.1-2.3-2.2-4.7-4.3-7.1-6.3l-1.3-1.1c-1,.5-2.4,1.2-4.3,2.2s-3.3,1.8-4.2,2.3c.2,3,.7,6.7,1.4,11.1-.4,0-.9.2-1.2.4-.4.2-.7.4-1.1.7h0ZM153.5,77.2l1.1-.6c1.2-.6,1.7-.9,1.6-.8l.8-.4,1.3-.7,2.6-1.4-1.4-1.3c-.8-.7-3-2.5-6.7-5.5l.9,10.7ZM198.7,69.9c-2-6.9-3.7-12.8-5.2-17.6l-1.9-6.3-1,.3c-2.3.6-4.5,1.5-6.7,2.5-.1-.5-.2-.8-.3-1s-.2-.7-.4-1.2c2.9-.8,5.8-1.7,8.9-2.6s6.4-2,9.9-3.1c0,.4.1.8.2,1.1.1.4.3.7.4,1.1-2.3.3-4.6.9-6.8,1.6l-1.1.3c.5,2.1,1.3,4.9,2.4,8.4,1.4,4.5,3,9.7,4.9,15.4l-1.7.5-1.8.6ZM220.7,63.7c-.5-3.2-1.4-7.7-2.6-13.4-1.1-5.2-2.1-9.4-3-12.7,1.5-.2,3-.5,4.7-.9s4.6-1,8.7-2v.5c.1.2.2.4.2.6,0,.2,0,.4.1.5v.6c-2.9.4-5.9.9-9,1.5l-.9.2c.6,3,1.1,5.7,1.6,8.1l.3,1.5.7-.2c2.3-.5,5.1-1.2,8.2-2,.1.5.2.9.2,1.2s.1.6.2,1.1c-2.4.2-4.8.6-7.2,1.2l-1.8.4.4,1.8c.2,1.1.9,4.3,2.1,9.4l.9-.2c2.3-.5,5.3-1.3,9-2.4v.6c.1.2.2.4.2.6,0,.1,0,.3.1.6v.6c.1,0-6.4,1.4-6.4,1.4l-7,1.5ZM251.9,59c-.4-7.2-.7-13.3-1.1-18.3l-.5-6.5h-1c-2.4.2-4.8.5-7.1,1.1,0-.4,0-.7,0-1.1,0-.4,0-.8,0-1.2,3-.1,6.1-.3,9.3-.5s6.7-.5,10.3-.8c0,.4,0,.8,0,1.1,0,.4,0,.8.2,1.2-2.3-.2-4.6-.2-6.9,0h-1.1c0,2.2.2,5.2.4,8.8.3,4.7.8,10.1,1.3,16h-1.8c0,.1-2,.2-2,.2ZM287.3,59.3c-4.4-.3-7.8-1.8-10.2-4.3s-3.6-6.2-3.3-10.5,1.9-7.6,4.7-9.9,6.3-3.2,10.6-2.9,7.8,1.7,10.2,4.4,3.5,6.2,3.2,10.5c0,3.8-1.8,7.3-4.7,9.8-3,2.4-6.9,3.4-10.7,3h0ZM287.4,57.8c3.6.3,6.4-.7,8.3-3,1.8-2,2.8-4.9,3-8.6s-.3-6.8-1.8-9c-1.6-2.5-4.2-3.9-7.9-4.1s-6.4.8-8.4,3.1c-1.7,2.1-2.7,5-3,8.7s.3,6.7,1.8,8.9c1.7,2.4,4.3,3.8,7.9,4h0ZM319.4,49.6l-.8,3.8c-.7,3.4-1.2,6-1.4,7.7.8.4,1.7.7,2.5.9,1.8.5,3.6.3,5.4-.3,1.7-.8,2.9-2.3,3.1-4.1.9-3.9-1.2-6.4-6.1-7.5-.9-.2-1.8-.4-2.7-.5h0ZM313.2,62c.8-2.4,1.6-5.9,2.6-10.5,1.5-7.2,2.6-12.4,3.1-15.7l1.9.4,2.3.5,2.3.5c2.2.4,4.2,1.1,6.1,2.3,1.9,1.2,2.8,3.5,2.2,5.6-.7,3.3-3.3,4.9-7.7,4.9,4.7,1.5,6.6,4.1,5.8,7.8-1.1,5.2-5.1,7.1-12,5.6-.5-.1-1.2-.3-2.2-.6s-1.7-.5-2.2-.6c-.7-.2-1.4-.3-2.1-.3h0ZM319.8,48c.8.2,1.5.4,2.1.6,4.7,1,7.5-.3,8.2-4,.7-3.2-1.1-5.3-5.3-6.2-.9-.2-1.8-.3-2.8-.4-.4,1.4-.8,3-1.2,4.9l-1.1,5.1ZM354.1,74.4c-4.1-1.5-7-3.8-8.6-7-1.6-3.5-1.7-7.5-.2-11,1.5-4.1,3.9-6.8,7.3-8.2s7-1.4,11,0,7,3.8,8.6,7,1.7,6.9.2,11c-1.1,3.6-3.7,6.6-7.2,8.1-3.5,1.4-7.5,1.4-11,0h0ZM354.6,73c3.4,1.2,6.3,1,8.8-.6,2.2-1.5,4-3.9,5.3-7.4s1.5-6.6.8-9.1c-.9-2.8-3-4.9-6.4-6.1s-6.4-1-8.9.7c-2.2,1.5-4,4-5.3,7.5s-1.5,6.5-.7,9c.9,2.8,3,4.8,6.4,6h0ZM429,90.7c.1-1,0-2.1-.4-3.1-.4-.9-1-1.7-1.8-2.3-1.1-.8-2.4-1.2-3.7-1-1.3.2-2.4.9-3.1,2-.7,1-1,2.2-.8,3.3.4,1.6,1.1,3.1,2.1,4.4,1.3,1.6,2.1,3.6,2.5,5.6,0,1.7-.5,3.4-1.5,4.8-1.3,1.9-3.4,3.1-5.7,3.4-2.3.3-4.7-.3-6.6-1.7-1.2-.8-2.2-1.8-3-3-.7-.9-1.1-2-1.2-3.2.4-.3.8-.7,1.1-.9s.6-.6,1-1l.6.2c-.1,1.2,0,2.5.5,3.7.5,1.2,1.3,2.2,2.3,2.9,1.2.9,2.8,1.3,4.3,1.1,1.5-.2,2.8-1.1,3.7-2.3.8-1,1.1-2.3.9-3.6-.3-1.6-1-3.1-2-4.5-1.3-1.7-2.2-3.6-2.5-5.7-.1-1.7.4-3.4,1.5-4.7,1.2-1.6,3-2.7,5-2.9,2.1-.2,4.2.3,5.9,1.6.9.7,1.8,1.5,2.5,2.4.7.8,1.2,1.8,1.6,2.8-.5.3-.9.7-1.2.9s-.7.6-1.2,1l-.5-.2ZM430.1,116.5l-2.6,2.4c-.3.3-.7.6-1.1.9.5.4,1,.9,1.5,1.4.5.5.9,1,1.4,1.5.3-.4.6-.7.9-1.1.4-.5,1.3-1.4,2.4-2.6,1.6-1.7,3.5-3.6,5.5-5.6.7.9,1.5,1.8,2.3,2.6,2.4,2.4,4.7,3.7,7,4,2.3.3,4.6-.5,6.1-2.2,1.5-1.3,2.3-3.3,2-5.3-.3-1.9-1.6-4-3.9-6.3l-1.2-1.1c-.4-.4-.9-.8-1.4-1.3s-.9-.8-1.4-1.4-1.2-1.2-1.9-2c-.3.4-.6.7-.9,1.1-.4.5-1.2,1.3-2.4,2.6-1.8,1.9-3.9,4-6.2,6.3-2.3,2.3-4.5,4.3-6.4,6.2h0ZM439.4,112.1l7.6-7.7c.8.7,1.7,1.4,2.6,2.3,1.3,1.2,2.2,2.7,2.6,4.4.2,1.5-.4,2.9-1.5,3.9-1.1,1.2-2.8,1.8-4.5,1.6-1.9-.3-3.7-1.2-5-2.7-.7-.8-1.3-1.4-1.8-2h0ZM450.3,138.6c2.1-1.6,4.5-3.3,7.1-5.2,2.6-1.9,4.9-3.7,7-5.4l2.8-2.2c.4-.3.7-.6,1-.9.3.5.7,1.1,1.1,1.7s.8,1.1,1.3,1.6c-.4.2-.8.5-1.2.7l-2.9,2c-2.1,1.5-4.5,3.3-7.1,5.2s-5,3.8-7,5.4l-2.8,2.2c-.4.3-.7.6-1,.9-.3-.6-.7-1.1-1.1-1.7-.4-.5-.8-1.1-1.3-1.6.4-.2.8-.5,1.2-.7l2.9-2ZM464.3,158.5l-3.1,1.8c-.4.2-.8.4-1.2.6.4.5.8,1.1,1.2,1.7.4.6.7,1.2,1,1.8.4-.3.7-.6,1.1-.8.5-.4,1.5-1.1,2.9-2,2.2-1.4,4.7-3,7.5-4.8,3.8-2.4,7.2-4.4,10-6.1l.8,1.3c.7,1.1,1.3,2.2,2,3.4.5.8.9,1.6,1.2,2.4.3-.3.6-.6,1-.8.4-.2.8-.4,1.2-.6-.8-1.1-1.7-2.5-2.8-4-1-1.5-1.8-2.7-2.4-3.6l-.5-.9-.5-.9c-.5-.9-1.2-2.1-2.2-3.7s-1.7-3-2.4-4.3c-.3.3-.6.6-1,.8-.4.2-.8.4-1.2.6.6.7,1.1,1.4,1.6,2.1.8,1.1,1.5,2.2,2.2,3.3l1.1,1.8c-2.7,1.8-6,4-9.9,6.4-2.9,1.7-5.4,3.2-7.6,4.6h0ZM476,179c2.9.1,6.1.2,9.6.3,6,.1,11,.1,15,0l.2.4.2.4c-2.8,2.8-6.3,6.4-10.4,10.7-2.4,2.6-4.6,4.9-6.5,7l-3.6,4.1c-.5-1.4-1-2.7-1.7-4,.6-.4,1.1-.9,1.6-1.3.5-.5,1.2-1.2,2.2-2.2l4.1-4.2c-.4-1.6-1-3.2-1.6-4.7-.6-1.6-1.3-3.1-2.3-4.5h-5.8c-1,0-2,0-2.9.1-.7.1-1.5.1-2.2.3-.1-.5-.3-1-.5-1.5-.2-.5-.5-1-.7-1.4.5,0,1,.1,1.4.2.7,0,2.1,0,4.1.2h0ZM495.3,181.2c-2.6-.1-5.5-.1-8.7-.1h-1.2c.3,1.3.8,2.5,1.3,3.7.5,1.2,1.1,2.4,1.8,3.5l.7-.7,6-6.3h0Z"></path><path class="cls-3" d="M322.3,275.3h-.3c-.3,0-.5,0-.8,0h-5.2,6.3ZM315,275.7l7.3-.4c13.2-.7,28.4-1.8,42.6-3.7-2.9.4-5.8.9-9,1.2,86.7-9.8,69.2-38.5,37.6-57.6-2.8-1.1-23.6-12.2-26.7-13.4-1.8-.7,14.3,8.6,12.4,8,20.6,10.2,41.2,25.5,36,38.5-7.4,18.8-71.1,18.6-83.2,18.6-1.2,0-2.5,0-3.7,0h0c-1.3,0-2.7-.1-4-.2h-.8c-1,0-1.9-.2-2.8-.3h-.9c0-.1-.5-.2-.5-.2h-1.3c0-.1-1.5-.1-1.5-.1-15.1-2.6-29.4-8.9-41.5-18.3-6.2-4.5-11.7-9.9-16.4-15.9-14.2-18.8-16.6-40.4,12.8-61,11.5-7.7,30.2-11.8,57.5-10,14,.9,24.7,10.8,34.9,18,3.5,2.4,7.4,4.6,10.6,4.7l2.7-2.6-9.5-9c2.5.2,10.6.2,15.3,4,1.4,1.2,2.5-3.2,3-5.4l1.2-5.3c-6-21.3-21.8-24.2-43.5-27.6-35.1-10.1-72.7-2.7-91.6,10.2-40.4,27.3-40.4,67-25.7,93.3,8.7,15.6,24.3,27.1,41.3,37.1,13.8-.3,27.6-1,42.5-1.9l4.2-.2h.6v-.4ZM312,258.5h-.6c0-.1-.2-.2-.2-.2-26.5-7.7-51.7-23.9-57.9-50.2,21.2,37,55.9,49.4,104.6,54.1-17.1,1.7-29,1.1-46-3.8h0ZM289.3,419.3l1.7-1.3,30.7-28c15.9-17.1,27.4-35.2,12.9-56.1-7.6-11-20.2-19.8-35.1-27.6h-.6c0-.1-.2-.1-.2-.1-27,.6-60.6-2.8-88.6-9-63.9-14-113.1-38.5-110.2-38.1-4,6.5,51.9,27.5,100.8,41.1,32.2,9,66.3,12.9,99,13.8,11.2,6.4,20.5,13.6,26.8,22.3,23.2,32.2-18.3,58-37.2,83h0ZM241.6,276.6c-31.4-2.1-75.8-4.3-105.6-22,44.4,13.9,63.8,14.4,86.4,13.3-30.9-26.5-37.6-88.1,25.5-125.6,16.2-9.7,37.9-15.7,65.3-15.6-26.9,0-47.6,6-62.9,15.6-43.7,27.2-47.5,71.4-35.9,97.7,6.8,15.4,20.7,26.8,36.3,36.8-3.1,0-6.2,0-9.2-.2h.2ZM297.8,322c48.3,33.2,22,50.4-8.4,82.4,21.6-31.7,42.6-51-.8-76.4-30.8-4.4-61-8.2-91.3-20.1,33.8,8.6,66.8,12.7,100.5,14.1h0ZM362.1,312.4c0,0,.1.1.2.2l.2.2h0l.2.2h0l.2.2h0c0,0,.3.5.3.5v.2M363.3,314l.2.3h0l.2.2h0c0,0,.2.4.2.4,0,0,0,0,0,.1v.2c.1,0,.3.3.3.3h0c0,0,.2.3.2.3v.2c.2,0,.2,0,.2.1v.2c0,0,.2.2.2.2h0c0,.1.1.3.1.3h0v.2h.1l.2.2s0,0,0,0c0,0,0,.1.1.2,0,0,0,.1,0,.1h0c0,.1.3.6.3.6h0v.3c.1,0,.1,0,.1,0,0,0,0,.1.1.2h0c0,.1,0,.3,0,.3v.2c0,0,.1,0,.1,0v.2h.1c0,0,0,.2.1.3h0v.2c.1,0,.1,0,.1,0,0,0,0,.1.1.2,0,0,0,.1,0,.1h0c0,.3.2.5.3.7h0l.3.5h0c0,.1,0,.3,0,.3,0,0,0,.1,0,.2,0,0,0,0,0,0v.3h.1c.1.3.2.5.4.8,0,0,0,.1,0,.2v.4h.1c0,0,0,.2.1.3h0v.3c.1,0,.1,0,.1,0,0,0,0,0,0,0,0,0,0,.2.1.3h0c0,.2,0,.3,0,.4h0c0,.2,0,.3.1.4,0,.2.2.5.3.7,0,0,0,.1,0,.2h0l-6.3-12.5ZM370.5,327.8c0,0,0,.2,0,.3h0c0,.2,0,.2,0,.3v.2c0,0,0,.1,0,.1,0,0,0,.2,0,.2h0c0,.1.1.4.1.4,14.6,47.2-67.9,87.4-101.7,118.6-4.5,4.1-12.5,1.3-14.9,5.1,2.1-5.9,10.9-5.1,16.6-11.2,27.8-29.6,87.6-62.1,75.7-98.9-4.3-13.3-16-23.4-30.4-32.5h.1l-6.3-4c3.3-.1,6.5-.3,9.8-.4,57.8-2.7,106.1-11.2,123-28-9.8,12.4-36.7,28.9-81.1,34h0c0,0,.1.2.1.2h0c0,.1.1.2.1.2h0c0,0,.1.1.2.2l8.4,15.2ZM362.9,313.5l.3.4-.3-.4ZM370.4,327.5l.2.6c0,0,0-.2,0-.3,0,0,0-.2-.1-.3h0ZM386.3,205.5c43.3,23.1,82.3,67.7-51.9,75.1-23.9,1.3-44.3,2.8-65,3.1-22.9-.4-47.5-2.4-79.1-7.8-5.8-1-11.9-2.1-18.3-3.3-17-3.3-58.1-17.4-54.3-15.9,7.7,6.7,34.6,16.6,66.3,25,47.8,12.8,93.1,16.7,144.9,14.9,93.7-3.1,167.9-31.2,97.7-72.3-10.2-6-23.6-12.3-40.4-18.8h0Z"></path><path class="cls-2" d="M277,82.5c47.5,0,93.5,17,129.3,48.2-35.5-29.1-80-45-125.9-44.8-105.5,0-191.5,81.2-191.5,180.9s58.4,151.7,138,173.6c8.1,2.3,15.1,3.7,23.5,3.7,22,0,32-14.4,53.1-31l-15.2,19.7-29.5,21.6c-17.9,1.5-36.3-1.3-53.4-6.8-71.8-27.8-122.9-96.3-122.9-176,0-104.3,87.3-189.3,194.3-189.3"></path><path class="cls-2" d="M469,271.9c1.8-46-14.1-87.7-41.5-119.1,25.4,30.7,40,71.3,38.3,115.9-3.7,97.8-84.2,179.1-179.3,181-4.4.1-8.9,0-13.3-.3l-7,5.8c5.1.3,10.2.5,15.3.4,99.5-2,183.6-84.5,187.4-183.8"></path><path class="cls-2" d="M271.5,0c149.5,0,271.5,122,271.5,271.5s-121.9,271.5-271.5,271.5S0,421,0,271.5,122,0,271.5,0M271.5,7.8C126.2,7.8,7.8,126.2,7.8,271.5s118.5,263.8,263.8,263.8,263.8-118.5,263.8-263.8S416.8,7.8,271.5,7.8Z"></path></g></g></g></svg> 